<svg xmlns="http://www.w3.org/2000/svg" width="34.881" height="34.66" viewBox="0 0 34.881 34.66">
  <g id="Group_3" data-name="Group 3" transform="translate(146.001 -337.005)">
    <path id="Subtraction_1" data-name="Subtraction 1" d="M34.88,34.664H20.167A17.44,17.44,0,0,0,17.834,0H34.88Zm-14.719,0H14.713V22.478h-4.43V17.438h4.43V13.6a6.924,6.924,0,0,1,1.8-5.03A6.579,6.579,0,0,1,21.3,6.812a26.966,26.966,0,0,1,3.9.34v4.288H23a2.806,2.806,0,0,0-2.233.845,2.822,2.822,0,0,0-.609,1.879v3.273H25l-.774,5.041H20.162V34.663Zm-5.461,0H0v-17a17.449,17.449,0,0,0,14.7,17ZM0,17.206H0V0H17.041A17.434,17.434,0,0,0,0,17.206Z" transform="translate(-146 337)"/>
  </g>
</svg>
